:SAMPLES-PER-SECOND 30
:FULLY-SPECIFIED
:DEGREES
117
root  -4.56392 40.9438 0.267462 0.310883 -73.2133 5.09903
RightUpLeg  2.65669 -1.97427 -1.31722
RightLeg  -7.03305 -34.8147 4.5847
RightFoot  -0.514566 -0.25635 2.78413
RightToes  -3.13588e-008 1.75238e-005 3.56266e-009
Spine  -0.748743 2.55999 1.80709
Spine1  -5.69803 3.0284 -3.96473
HEad  -4.65637 -0.111925 1.25594
LeftShoulder1  0.864235 0.168113 -19.3821
LeftArm  -32.9485 32.5537 -45.145
LeftForeArm  59.7774 -77.2485 -48.1407
LeftHand  -0.426852 -1.7656 7.10604
RightShoulder  0.720297 -0.245676 15.4384
RightArm  -64.4421 22.5124 16.5181
RightForeArm  114.714 76.6908 127.237
RightHand  -0.25813 8.57368 -2.52305
LeftUpLeg  -2.16424 -0.273287 2.34411
LeftLeg  -4.62961 0.494413 -0.320406
LeftFoot  2.20665 0.43178 -3.7908
LeftToes  4.76812e-008 1.47286e-008 1.3089e-009
118
root  -4.5878 40.9452 0.277893 0.393768 -73.2935 4.94388
RightUpLeg  2.77769 -1.94934 -1.27015
RightLeg  -7.06897 -34.7698 4.58665
RightFoot  -0.512897 -0.25827 2.82907
RightToes  -3.13588e-008 1.75238e-005 3.56266e-009
Spine  -1.05955 2.55768 1.91778
Spine1  -5.23069 3.04159 -4.00343
HEad  -4.95109 -0.693405 0.8068
LeftShoulder1  0.888358 0.0999817 -19.5869
LeftArm  -32.6322 31.9683 -45.9633
LeftForeArm  60.0812 -77.1579 -47.3345
LeftHand  -0.375963 -2.21754 5.94229
RightShoulder  0.703364 -0.343111 15.6008
RightArm  -63.8034 22.2591 16.5177
RightForeArm  114.663 76.7741 126.852
RightHand  -0.212767 7.91857 -2.22777
LeftUpLeg  -2.0068 -0.234069 2.39358
LeftLeg  -4.67975 0.48088 -0.308212
LeftFoot  2.12933 0.433473 -3.82349
LeftToes  4.76812e-008 1.47286e-008 1.3089e-009
119
root  -4.60651 40.9439 0.256534 0.206116 -73.0595 4.94562
RightUpLeg  3.07487 -1.98299 -1.24743
RightLeg  -7.20031 -34.9607 4.69808
RightFoot  -0.522709 -0.257675 2.83464
RightToes  -3.13588e-008 1.75238e-005 3.56266e-009
Spine  -1.22411 2.49195 1.36792
Spine1  -4.89929 2.91855 -3.29083
HEad  -4.90709 -0.764304 0.188787
LeftShoulder1  0.925115 -0.0134337 -19.8067
LeftArm  -32.3378 29.7977 -47.0188
LeftForeArm  60.4563 -77.0877 -46.6704
LeftHand  -0.34604 -2.43177 5.36208
RightShoulder  0.693662 -0.383718 15.5814
RightArm  -62.6684 22.4638 16.7981
RightForeArm  115.795 76.6388 127.734
RightHand  -0.237161 7.5278 -2.4908
LeftUpLeg  -1.85287 -0.192465 2.40348
LeftLeg  -4.62162 0.254145 -0.281503
LeftFoot  2.16724 0.433559 -3.8231
LeftToes  4.76812e-008 1.47286e-008 1.3089e-009
120
root  -4.59547 40.9393 0.227003 0.664185 -72.3764 4.3873
RightUpLeg  3.23814 -1.9615 -1.06692
RightLeg  -7.33776 -35.6423 4.91933
RightFoot  -0.56587 -0.252599 2.77016
RightToes  -3.13588e-008 1.75238e-005 3.56266e-009
Spine  -1.30439 2.3008 1.30648
Spine1  -4.82316 2.69688 -3.0543
HEad  -4.16255 -0.800137 -0.217541
LeftShoulder1  0.976054 -0.188665 -19.9512
LeftArm  -31.5667 26.0537 -47.9763
LeftForeArm  59.8339 -77.1086 -47.0903
LeftHand  -0.422639 -1.74389 7.04485
RightShoulder  0.757521 -0.142173 15.8909
RightArm  -61.7187 23.0134 17.2244
RightForeArm  118.651 76.0806 130.676
RightHand  -0.260509 7.90059 -2.64376
LeftUpLeg  -2.10176 -0.0827143 2.56708
LeftLeg  -4.2036 -0.541486 -0.213051
LeftFoot  2.02162 0.436271 -3.85432
LeftToes  4.76812e-008 1.47286e-008 1.3089e-009
121
root  -4.59503 40.9368 0.196159 0.528534 -72.0048 4.29443
RightUpLeg  3.47092 -2.08511 -1.05785
RightLeg  -7.2491 -35.853 4.99965
RightFoot  -0.703675 -0.248797 2.72469
RightToes  -3.13588e-008 1.75238e-005 3.56266e-009
Spine  -1.35235 2.33349 1.24755
Spine1  -4.67216 2.71078 -2.85861
HEad  -3.26184 -1.36316 -0.664241
LeftShoulder1  1.08606 -0.578472 -20.1278
LeftArm  -31.0715 20.7165 -48.7033
LeftForeArm  59.2979 -77.0157 -46.6509
LeftHand  -0.456112 -1.65036 7.70643
RightShoulder  0.865778 0.298628 16.1459
RightArm  -60.6106 24.0555 17.6969
RightForeArm  126.405 74.632 137.131
RightHand  -0.260776 8.47519 -2.55943
LeftUpLeg  -1.96276 -0.00781178 2.62132
LeftLeg  -4.12357 -1.01281 -0.195268
LeftFoot  1.99732 0.4364 -3.83472
LeftToes  4.76812e-008 1.47286e-008 1.3089e-009
122
root  -4.58009 40.9327 0.160171 0.184021 -71.5653 4.47336
RightUpLeg  3.56224 -2.23499 -1.11412
RightLeg  -6.99626 -36.1471 4.95121
RightFoot  -0.855394 -0.248369 2.73062
RightToes  -3.13588e-008 1.75238e-005 3.56266e-009
Spine  -1.45168 2.37686 0.991262
Spine1  -4.33351 2.71314 -2.3698
HEad  -2.95622 -1.84595 -1.13934
LeftShoulder1  1.23494 -1.07066 -20.5634
LeftArm  -30.0024 14.2503 -48.7766
LeftForeArm  61.1396 -77.5823 -50.1905
LeftHand  -0.444678 -1.23322 7.93287
RightShoulder  0.845554 0.251382 15.8622
RightArm  -58.5855 26.3591 18.9575
RightForeArm  133.691 71.8637 145.021
RightHand  -0.250979 8.26246 -2.51359
LeftUpLeg  -1.87431 -0.0599547 2.56368
LeftLeg  -4.13848 -1.39151 -0.146531
LeftFoot  2.0861 0.441367 -3.85683
LeftToes  4.76812e-008 1.47286e-008 1.3089e-009
123
root  -4.55988 40.93 0.107976 0.296112 -71.0629 4.28192
RightUpLeg  3.67501 -2.17645 -0.973475
RightLeg  -7.15289 -36.6931 5.09068
RightFoot  -0.847904 -0.245055 2.69066
RightToes  -3.13588e-008 1.75238e-005 3.56266e-009
Spine  -1.20373 2.26831 1.424
Spine1  -4.51666 2.67424 -3.04273
HEad  -2.54044 -3.15305 -1.08394
LeftShoulder1  1.32984 -1.43524 -20.4871
LeftArm  -28.7067 6.71079 -48.079
LeftForeArm  69.76 -78.9464 -61.1657
LeftHand  -0.361389 -1.38864 6.35228
RightShoulder  0.930541 0.598861 16.0397
RightArm  -55.0961 28.7748 20.3664
RightForeArm  141.333 67.7894 152.615
RightHand  -0.359594 7.98175 -3.48281
LeftUpLeg  -2.00048 -0.00383273 2.66075
LeftLeg  -3.9987 -1.93434 -0.110695
LeftFoot  2.12191 0.458284 -3.99173
LeftToes  4.76812e-008 1.47286e-008 1.3089e-009
124
root  -4.55148 40.9279 0.0529419 0.385742 -70.7932 4.198
RightUpLeg  3.68131 -2.14841 -0.864947
RightLeg  -7.25775 -36.9965 5.20891
RightFoot  -0.893735 -0.234797 2.54162
RightToes  -3.13588e-008 1.75238e-005 3.56266e-009
Spine  -1.08432 2.24537 1.70973
Spine1  -4.7499 2.7022 -3.5604
HEad  -1.99805 -4.75495 -0.975976
LeftShoulder1  1.39717 -1.73384 -20.2239
LeftArm  -28.4019 -2.42804 -47.1857
LeftForeArm  89.9998 -80.1352 -83.0587
LeftHand  -0.365639 -1.16722 6.59413
RightShoulder  0.925931 0.697912 15.3373
RightArm  -49.1912 30.8403 23.73
RightForeArm  147.431 63.2833 158.137
RightHand  -0.43958 8.64921 -4.01116
LeftUpLeg  -2.07328 0.0380326 2.75815
LeftLeg  -4.0271 -2.28758 -0.0851695
LeftFoot  2.18258 0.465681 -4.03877
LeftToes  4.76812e-008 1.47286e-008 1.3089e-009
125
root  -4.55806 40.9273 -0.00554604 0.517029 -70.6541 4.19864
RightUpLeg  3.55995 -2.17125 -0.810588
RightLeg  -7.34466 -37.1084 5.36693
RightFoot  -0.906597 -0.227071 2.43034
RightToes  -3.13588e-008 1.75238e-005 3.56266e-009
Spine  -0.707728 2.24382 1.38087
Spine1  -5.60529 2.68308 -3.5144
HEad  -1.32657 -5.37801 -0.484108
LeftShoulder1  1.43084 -1.9727 -19.6321
LeftArm  -28.9827 -13.0758 -46.353
LeftForeArm  118.885 -79.2944 -113.344
LeftHand  -0.326547 -1.14087 5.80151
RightShoulder  1.01026 1.15826 14.9026
RightArm  -41.7853 30.6935 27.5896
RightForeArm  151.925 59.6398 161.453
RightHand  -0.464062 9.01565 -4.12037
LeftUpLeg  -2.1901 -0.0952409 2.76434
LeftLeg  -4.19113 -2.21149 0.0646032
LeftFoot  2.31244 0.490673 -4.21546
LeftToes  4.76812e-008 1.47286e-008 1.3089e-009
126
root  -4.57338 40.9275 -0.0740405 1.00919 -70.7481 3.82037
RightUpLeg  3.51516 -1.99819 -0.555779
RightLeg  -7.68585 -37.1958 5.6114
RightFoot  -0.851647 -0.214029 2.23539
RightToes  -3.13588e-008 1.75238e-005 3.56266e-009
Spine  -0.154329 2.21998 0.332087
Spine1  -6.76204 2.56066 -2.66685
HEad  -0.194841 -5.93027 -0.221341
LeftShoulder1  1.33285 -1.82923 -18.4126
LeftArm  -30.8548 -25.1699 -46.1797
LeftForeArm  141.989 -76.1711 -135.622
LeftHand  -0.573701 -2.62183 8.58817
RightShoulder  1.23332 2.00923 15.6592
RightArm  -34.6903 28.4646 30.4489
RightForeArm  154.691 58.5848 162.382
RightHand  -0.448375 9.33528 -3.91963
LeftUpLeg  -2.342 -0.0210197 2.97945
LeftLeg  -4.18599 -2.21962 0.147696
LeftFoot  2.33598 0.501597 -4.30037
LeftToes  4.76812e-008 1.47286e-008 1.3089e-009
127
root  -4.59406 40.9289 -0.130027 1.3681 -71.2323 3.55594
RightUpLeg  3.40272 -1.81161 -0.35623
RightLeg  -7.81349 -36.9254 5.6459
RightFoot  -0.773816 -0.207814 2.14568
RightToes  -3.13588e-008 1.75238e-005 3.56266e-009
Spine  0.127974 2.34344 -1.47676
Spine1  -7.44692 2.49711 -0.622208
HEad  0.373287 -6.09687 -0.0933662
LeftShoulder1  1.23864 -1.61364 -17.5695
LeftArm  -34.3036 -37.2138 -44.6651
LeftForeArm  153.71 -72.6441 -146.741
LeftHand  -0.574024 -2.85211 8.31394
RightShoulder  1.48662 2.93517 16.4581
RightArm  -29.4146 24.6751 32.1427
RightForeArm  154.757 60.2111 161.269
RightHand  -0.462842 9.45095 -4.0137
LeftUpLeg  -2.35476 0.0808088 3.17597
LeftLeg  -4.2327 -1.83707 0.167421
LeftFoot  2.3062 0.506261 -4.33953
LeftToes  4.76812e-008 1.47286e-008 1.3089e-009
128
root  -4.61217 40.9335 -0.141163 1.64325 -71.7733 3.34625
RightUpLeg  3.38877 -1.72816 -0.270285
RightLeg  -8.04709 -36.4784 5.76294
RightFoot  -0.638494 -0.199282 2.01933
RightToes  -3.13588e-008 1.75238e-005 3.56266e-009
Spine  0.0549089 2.49989 -2.87034
Spine1  -7.50663 2.51677 1.04397
HEad  0.615355 -6.32655 0.236036
LeftShoulder1  1.12331 -1.34376 -16.4103
LeftArm  -39.8052 -48.0237 -42.0619
LeftForeArm  158.624 -69.7712 -152.228
LeftHand  -0.580074 -3.03061 8.23305
RightShoulder  1.5737 3.16518 17.0069
RightArm  -25.1852 19.7516 33.7233
RightForeArm  151.287 63.596 158.23
RightHand  -0.525668 8.53824 -4.74169
LeftUpLeg  -2.31634 0.168299 3.301
LeftLeg  -4.27384 -1.37738 0.14615
LeftFoot  2.27646 0.509452 -4.38188
LeftToes  4.76812e-008 1.47286e-008 1.3089e-009
129
root  -4.64015 40.9353 -0.13227 1.62216 -72.3751 3.33347
RightUpLeg  3.47428 -1.67859 -0.260744
RightLeg  -8.15089 -35.93 5.73331
RightFoot  -0.583269 -0.195193 1.96121
RightToes  -3.13588e-008 1.75238e-005 3.56266e-009
Spine  0.305271 2.58993 -3.53353
Spine1  -7.8318 2.55901 1.66178
HEad  0.186695 -6.07497 0.992579
LeftShoulder1  0.869778 -0.497547 -14.8836
LeftArm  -46.1223 -55.8146 -38.775
LeftForeArm  160.826 -67.9907 -154.799
LeftHand  -0.567122 -2.64256 8.41655
RightShoulder  1.64267 3.25849 17.7581
RightArm  -21.8009 14.3537 34.6259
RightForeArm  148.133 68.325 152.708
RightHand  -0.642308 8.59392 -5.69808
LeftUpLeg  -2.14023 0.191092 3.32394
LeftLeg  -4.25928 -0.822226 0.137009
LeftFoot  2.17313 0.510749 -4.42128
LeftToes  4.76812e-008 1.47286e-008 1.3089e-009
130
root  -4.65995 40.9359 -0.114724 1.4429 -72.9718 3.50989
RightUpLeg  3.43166 -1.64184 -0.304383
RightLeg  -8.01404 -35.3971 5.51382
RightFoot  -0.544901 -0.197946 2.00858
RightToes  -3.13588e-008 1.75238e-005 3.56266e-009
Spine  0.70517 2.66038 -4.32216
Spine1  -8.48758 2.54196 2.67602
HEad  0.368209 -5.69859 1.04055
LeftShoulder1  0.662479 0.404773 -14.4679
LeftArm  -54.2638 -59.6529 -31.9448
LeftForeArm  161.579 -66.7819 -156.262
LeftHand  -0.586909 -2.62147 8.71783
RightShoulder  1.74218 3.4772 18.4817
RightArm  -19.4004 9.20495 34.7607
RightForeArm  140.045 73.4922 142.649
RightHand  -0.54219 8.06901 -5.03714
LeftUpLeg  -1.98923 0.217704 3.29848
LeftLeg  -4.2635 -0.267803 0.0482828
LeftFoot  2.10204 0.483963 -4.2144
LeftToes  4.76812e-008 1.47286e-008 1.3089e-009
